<svg xmlns="http://www.w3.org/2000/svg" id="_图层_2" data-name="图层 2" viewBox="0 0 747.45 485.87"><defs><style> .cls-1 { fill: #000; stroke-width: 0px; } </style></defs><g id="_图层_1-2" data-name="图层 1"><g><g><path class="cls-1" d="M410.85,103.57v278.72h-37.29v-11.19h-192.65v11.19h-35.42V103.57h265.36ZM180.91,136.82v104.09c22.37-4.35,45.68-10.88,66.81-19.27-8.08-5.9-15.54-11.81-22.06-18.02-6.21,5.28-12.74,9.94-18.95,13.98-5.59-5.9-17.4-16.78-24.24-21.75,25.17-14.29,50.34-36.04,65.56-59.04h-67.12ZM373.57,338.48v-94.46c-6.21,7.15-13.05,17.09-16.47,23.62-27.03-5.59-53.45-14.92-77.37-27.34-8.08,4.35-16.47,8.08-24.86,11.81,24.55,5.28,53.76,14.29,71.16,22.06l-14.92,22.68c-18.33-8.39-51.27-19.58-77.37-25.17l11.5-15.85c-16.78,6.53-34.18,11.81-50.96,15.85-2.49-7.15-8.08-17.71-13.36-25.17v91.98h146.98c-31.07-11.19-81.41-22.37-122.43-27.03l16.78-23.93c41.95,4.35,94.46,15.54,126.16,26.41l-15.23,24.55h40.4ZM249.27,187.78c8.08,7.15,17.71,13.98,28.9,19.58,11.81-5.59,21.75-12.43,30.76-19.58h-59.66ZM373.57,136.82h-120.88l26.41,9.32c-3.11,4.66-6.53,9.63-10.25,14.29h67.74l5.28-1.24,20.82,12.43c-12.43,19.27-30.76,36.04-51.89,50.65,19.58,7.46,41.33,13.05,62.77,17.09v-102.54Z"/><path class="cls-1" d="M447.84,297.78c0-29.52,18.02-48.47,39.46-59.97v-1.55c-17.71-12.74-30.45-30.14-30.45-54.69,0-36.98,29.21-60.59,69.29-60.59s66.81,24.55,66.81,61.21c0,22.68-14.29,41.64-29.52,52.51v1.55c21.13,11.5,38.53,30.14,38.53,61.52,0,34.8-30.76,61.52-77.37,61.52-43.81,0-76.75-25.48-76.75-61.52ZM559.39,296.23c0-23.93-21.13-33.87-50.96-45.99-12.43,9.94-21.13,25.48-21.13,42.57,0,20.82,17.09,34.18,38.53,34.18,19.26,0,33.56-10.88,33.56-30.76ZM555.66,184.98c0-18.64-11.19-32.01-30.45-32.01-15.54,0-27.96,10.25-27.96,28.59,0,21.75,17.71,32.32,41.95,41.95,11.19-11.81,16.47-24.86,16.47-38.53Z"/></g><path class="cls-1" d="M657.1,20c38.85,0,70.35,31.5,70.35,70.35v305.17c0,38.85-31.5,70.35-70.35,70.35H90.35c-38.85,0-70.35-31.5-70.35-70.35V90.35c0-38.85,31.5-70.35,70.35-70.35h566.75M657.1,0H90.35C40.53,0,0,40.53,0,90.35v305.17c0,49.82,40.53,90.35,90.35,90.35h566.75c49.82,0,90.35-40.53,90.35-90.35V90.35c0-49.82-40.53-90.35-90.35-90.35h0Z"/></g></g></svg>