<svg xmlns="http://www.w3.org/2000/svg" id="_图层_2" data-name="图层 2" viewBox="0 0 747.45 485.87"><defs><style> .cls-1 { fill: #000; stroke-width: 0px; } </style></defs><g id="_图层_1-2" data-name="图层 1"><g><g><path class="cls-1" d="M411.48,103.57v278.72h-37.29v-11.19h-192.65v11.19h-35.42V103.57h265.36ZM181.54,136.82v104.09c22.37-4.35,45.68-10.88,66.81-19.26-8.08-5.9-15.54-11.81-22.06-18.02-6.21,5.28-12.74,9.94-18.95,13.98-5.59-5.9-17.4-16.78-24.24-21.75,25.17-14.29,50.34-36.04,65.56-59.04h-67.12ZM374.19,338.48v-94.46c-6.21,7.15-13.05,17.09-16.47,23.62-27.03-5.59-53.45-14.92-77.37-27.34-8.08,4.35-16.47,8.08-24.86,11.81,24.55,5.28,53.76,14.29,71.16,22.06l-14.92,22.68c-18.33-8.39-51.27-19.58-77.37-25.17l11.5-15.85c-16.78,6.53-34.18,11.81-50.96,15.85-2.49-7.15-8.08-17.71-13.36-25.17v91.98h146.98c-31.07-11.19-81.41-22.37-122.43-27.03l16.78-23.93c41.95,4.35,94.46,15.54,126.16,26.41l-15.23,24.55h40.39ZM249.9,187.78c8.08,7.15,17.71,13.98,28.9,19.58,11.81-5.59,21.75-12.43,30.76-19.58h-59.66ZM374.19,136.82h-120.87l26.41,9.32c-3.11,4.66-6.53,9.63-10.25,14.29h67.74l5.28-1.24,20.82,12.43c-12.43,19.26-30.76,36.04-51.89,50.65,19.58,7.46,41.33,13.05,62.77,17.09v-102.54Z"/><path class="cls-1" d="M473.94,305.86c8.39,9.01,22.68,16.16,36.36,16.16,25.79,0,47.23-19.58,49.1-77.37-11.81,15.54-31.38,25.17-47.23,25.17-38.22,0-65.88-23.62-65.88-72.4s32.94-76.75,72.4-76.75c43.5,0,82.65,34.18,82.65,114.04,0,87-42.57,124.6-88.25,124.6-28.59,0-49.41-12.12-63.08-26.1l23.93-27.34ZM558.77,212.64c-4.04-41.95-19.89-57.48-39.46-57.48-17.09,0-31.07,13.98-31.07,42.26s12.74,39.77,32.63,39.77c12.43,0,26.72-6.84,37.91-24.55Z"/></g><path class="cls-1" d="M657.1,20c38.85,0,70.35,31.5,70.35,70.35v305.17c0,38.85-31.5,70.35-70.35,70.35H90.35c-38.85,0-70.35-31.5-70.35-70.35V90.35c0-38.85,31.5-70.35,70.35-70.35h566.75M657.1,0H90.35C40.53,0,0,40.53,0,90.35v305.17c0,49.82,40.53,90.35,90.35,90.35h566.75c49.82,0,90.35-40.53,90.35-90.35V90.35c0-49.82-40.53-90.35-90.35-90.35h0Z"/></g></g></svg>